<mxfile host="app.diagrams.net" modified="2021-08-16T12:18:51.832Z" agent="5.0 (Macintosh; Intel Mac OS X 10_15_5) AppleWebKit/537.36 (KHTML, like Gecko) Chrome/92.0.4515.131 Safari/537.36" etag="DYcodFfKInNJIa_7oSoE" version="14.9.6" type="github">
  <diagram id="eNwvmtfnUTwQ2Sefj3YD" name="Page-1">
    <mxGraphModel dx="2253" dy="1906" grid="1" gridSize="10" guides="1" tooltips="1" connect="1" arrows="1" fold="1" page="1" pageScale="1" pageWidth="827" pageHeight="1169" math="0" shadow="0">
      <root>
        <mxCell id="0" />
        <mxCell id="1" parent="0" />
        <mxCell id="HOZdnpOeCfYpGoQ59FNz-10" value="&lt;p style=&quot;margin: 0px ; margin-top: 4px ; text-align: center&quot;&gt;&lt;b&gt;MixerController&lt;/b&gt;&lt;/p&gt;&lt;hr size=&quot;1&quot;&gt;&lt;p style=&quot;margin: 0px ; margin-left: 4px&quot;&gt;&lt;br&gt;&lt;/p&gt;&lt;hr size=&quot;1&quot;&gt;&lt;p style=&quot;margin: 0px 0px 0px 4px&quot;&gt;+ mixer(int[]):&amp;nbsp;map[int:AdvertisementModel[]]&lt;/p&gt;&lt;p style=&quot;margin: 0px 0px 0px 4px&quot;&gt;+ callRetrieval(int[]): map[int:AdvertisementModel[]]&lt;/p&gt;&lt;p style=&quot;margin: 0px 0px 0px 4px&quot;&gt;+ filter(int, AdvertisementModel[]):&amp;nbsp;AdvertisementModel[]&lt;/p&gt;&lt;p style=&quot;margin: 0px 0px 0px 4px&quot;&gt;+ rerank(int, AdvertisementModel[]): AdvertisementModel[]&lt;/p&gt;&lt;p style=&quot;margin: 0px 0px 0px 4px&quot;&gt;+ reportFunnel(): void&lt;/p&gt;" style="verticalAlign=top;align=left;overflow=fill;fontSize=12;fontFamily=Helvetica;html=1;" parent="1" vertex="1">
          <mxGeometry x="-77.5" y="150" width="325" height="163.75" as="geometry" />
        </mxCell>
        <mxCell id="HOZdnpOeCfYpGoQ59FNz-11" value="&lt;p style=&quot;margin: 0px ; margin-top: 4px ; text-align: center&quot;&gt;&lt;b&gt;SystemController&lt;/b&gt;&lt;/p&gt;&lt;hr size=&quot;1&quot;&gt;&lt;p style=&quot;margin: 0px ; margin-left: 4px&quot;&gt;+ userID: int&lt;/p&gt;&lt;p style=&quot;margin: 0px ; margin-left: 4px&quot;&gt;+ userName: string&lt;/p&gt;&lt;p style=&quot;margin: 0px ; margin-left: 4px&quot;&gt;+ session: string&lt;/p&gt;&lt;p style=&quot;margin: 0px ; margin-left: 4px&quot;&gt;+ timestamp: int&lt;br&gt;&lt;/p&gt;&lt;hr size=&quot;1&quot;&gt;&lt;p style=&quot;margin: 0px ; margin-left: 4px&quot;&gt;+ checkPermission(string): bool&lt;/p&gt;&lt;p style=&quot;margin: 0px ; margin-left: 4px&quot;&gt;+ checkParameter(map): bool&lt;/p&gt;&lt;p style=&quot;margin: 0px ; margin-left: 4px&quot;&gt;+ serveErrMsg(int, string): void&lt;/p&gt;" style="verticalAlign=top;align=left;overflow=fill;fontSize=12;fontFamily=Helvetica;html=1;" parent="1" vertex="1">
          <mxGeometry x="-46.25" y="-70" width="260" height="150" as="geometry" />
        </mxCell>
        <mxCell id="HOZdnpOeCfYpGoQ59FNz-12" value="Extends" style="endArrow=block;endSize=16;endFill=0;html=1;entryX=0.5;entryY=1;entryDx=0;entryDy=0;" parent="1" source="HOZdnpOeCfYpGoQ59FNz-10" target="HOZdnpOeCfYpGoQ59FNz-11" edge="1">
          <mxGeometry width="160" relative="1" as="geometry">
            <mxPoint x="458.75" y="220" as="sourcePoint" />
            <mxPoint x="458.75" y="340" as="targetPoint" />
          </mxGeometry>
        </mxCell>
        <mxCell id="HOZdnpOeCfYpGoQ59FNz-20" value="&lt;p style=&quot;margin: 0px ; margin-top: 4px ; text-align: center&quot;&gt;&lt;b&gt;SystemModel&lt;/b&gt;&lt;/p&gt;&lt;hr size=&quot;1&quot;&gt;&lt;p style=&quot;margin: 0px ; margin-left: 4px&quot;&gt;+ ID: int&lt;br&gt;&lt;/p&gt;&lt;hr size=&quot;1&quot;&gt;&lt;p style=&quot;margin: 0px ; margin-left: 4px&quot;&gt;+ new(): SystemModel&lt;br&gt;&lt;/p&gt;&lt;p style=&quot;margin: 0px ; margin-left: 4px&quot;&gt;+ get(): SystemModel&lt;/p&gt;&lt;p style=&quot;margin: 0px ; margin-left: 4px&quot;&gt;+ set(): bool&lt;/p&gt;&lt;p style=&quot;margin: 0px ; margin-left: 4px&quot;&gt;&amp;nbsp;&lt;/p&gt;" style="verticalAlign=top;align=left;overflow=fill;fontSize=12;fontFamily=Helvetica;html=1;" parent="1" vertex="1">
          <mxGeometry x="-490" y="600" width="280" height="110" as="geometry" />
        </mxCell>
        <mxCell id="HOZdnpOeCfYpGoQ59FNz-30" value="Use" style="endArrow=open;endSize=12;dashed=1;html=1;exitX=0.5;exitY=1;exitDx=0;exitDy=0;entryX=0.5;entryY=0;entryDx=0;entryDy=0;" parent="1" source="HOZdnpOeCfYpGoQ59FNz-10" target="IcDYwzOxPDOBFZn5-O4r-1" edge="1">
          <mxGeometry width="160" relative="1" as="geometry">
            <mxPoint x="320" y="592.5" as="sourcePoint" />
            <mxPoint x="240" y="362.5" as="targetPoint" />
          </mxGeometry>
        </mxCell>
        <mxCell id="YE8yQruqdNAR4PLWfE6g-1" value="&lt;p style=&quot;margin: 0px ; margin-top: 4px ; text-align: center&quot;&gt;&lt;b&gt;MaterialInstanceModel&lt;/b&gt;&lt;/p&gt;&lt;hr size=&quot;1&quot;&gt;&lt;p style=&quot;margin: 0px ; margin-left: 4px&quot;&gt;&lt;span&gt;+ name: string&lt;/span&gt;&lt;/p&gt;&lt;p style=&quot;margin: 0px ; margin-left: 4px&quot;&gt;&lt;span&gt;+ adposID: int&lt;/span&gt;&lt;/p&gt;&lt;p style=&quot;margin: 0px ; margin-left: 4px&quot;&gt;+ status: int&lt;/p&gt;&lt;p style=&quot;margin: 0px ; margin-left: 4px&quot;&gt;+ type:&amp;nbsp;MaterialTypeModel&lt;/p&gt;&lt;p style=&quot;margin: 0px ; margin-left: 4px&quot;&gt;+ materials: MaterialModel[]&lt;/p&gt;&lt;hr size=&quot;1&quot;&gt;&lt;p style=&quot;margin: 0px ; margin-left: 4px&quot;&gt;&lt;br&gt;&lt;/p&gt;" style="verticalAlign=top;align=left;overflow=fill;fontSize=12;fontFamily=Helvetica;html=1;" parent="1" vertex="1">
          <mxGeometry x="-50" y="750" width="260" height="155" as="geometry" />
        </mxCell>
        <mxCell id="YE8yQruqdNAR4PLWfE6g-2" value="Extends" style="endArrow=block;endSize=16;endFill=0;html=1;entryX=1;entryY=0.5;entryDx=0;entryDy=0;exitX=0;exitY=0.5;exitDx=0;exitDy=0;" parent="1" source="YE8yQruqdNAR4PLWfE6g-1" target="HOZdnpOeCfYpGoQ59FNz-20" edge="1">
          <mxGeometry width="160" relative="1" as="geometry">
            <mxPoint y="627.5" as="sourcePoint" />
            <mxPoint x="-240" y="627.5" as="targetPoint" />
          </mxGeometry>
        </mxCell>
        <mxCell id="IcDYwzOxPDOBFZn5-O4r-1" value="&lt;p style=&quot;margin: 0px ; margin-top: 4px ; text-align: center&quot;&gt;&lt;b&gt;AdvertisementModel&lt;/b&gt;&lt;/p&gt;&lt;hr size=&quot;1&quot;&gt;&lt;p style=&quot;margin: 0px ; margin-left: 4px&quot;&gt;&lt;span&gt;+ name: string&lt;/span&gt;&lt;/p&gt;&lt;p style=&quot;margin: 0px ; margin-left: 4px&quot;&gt;&lt;span&gt;+ adposID: int&lt;/span&gt;&lt;/p&gt;&lt;p style=&quot;margin: 0px ; margin-left: 4px&quot;&gt;+ status: int&lt;/p&gt;&lt;p style=&quot;margin: 0px ; margin-left: 4px&quot;&gt;+ type:&amp;nbsp;MaterialTypeModel&lt;/p&gt;&lt;p style=&quot;margin: 0px ; margin-left: 4px&quot;&gt;+ materials: MaterialModel[]&lt;/p&gt;&lt;p style=&quot;margin: 0px ; margin-left: 4px&quot;&gt;+ beginTime: int&lt;/p&gt;&lt;p style=&quot;margin: 0px ; margin-left: 4px&quot;&gt;+ endTime: int&lt;/p&gt;&lt;p style=&quot;margin: 0px ; margin-left: 4px&quot;&gt;+ createTime: int&lt;/p&gt;&lt;p style=&quot;margin: 0px ; margin-left: 4px&quot;&gt;+ modifyTime: int&lt;/p&gt;&lt;p style=&quot;margin: 0px ; margin-left: 4px&quot;&gt;+ bid: int&lt;/p&gt;&lt;p style=&quot;margin: 0px ; margin-left: 4px&quot;&gt;+ dailyLimit: int&lt;/p&gt;&lt;hr size=&quot;1&quot;&gt;&lt;p style=&quot;margin: 0px ; margin-left: 4px&quot;&gt;&lt;br&gt;&lt;/p&gt;" style="verticalAlign=top;align=left;overflow=fill;fontSize=12;fontFamily=Helvetica;html=1;" parent="1" vertex="1">
          <mxGeometry x="-50" y="420" width="270" height="252.5" as="geometry" />
        </mxCell>
        <mxCell id="IcDYwzOxPDOBFZn5-O4r-2" value="Extends" style="endArrow=block;endSize=16;endFill=0;html=1;exitX=0;exitY=0.5;exitDx=0;exitDy=0;entryX=1;entryY=0.5;entryDx=0;entryDy=0;" parent="1" source="IcDYwzOxPDOBFZn5-O4r-1" target="HOZdnpOeCfYpGoQ59FNz-20" edge="1">
          <mxGeometry width="160" relative="1" as="geometry">
            <mxPoint x="-40" y="627.5" as="sourcePoint" />
            <mxPoint x="-250" y="590" as="targetPoint" />
          </mxGeometry>
        </mxCell>
        <mxCell id="IcDYwzOxPDOBFZn5-O4r-8" value="has" style="endArrow=open;html=1;endSize=12;startArrow=diamondThin;startSize=14;startFill=1;edgeStyle=orthogonalEdgeStyle;align=left;verticalAlign=bottom;entryX=0.5;entryY=1;entryDx=0;entryDy=0;exitX=0.5;exitY=0;exitDx=0;exitDy=0;" parent="1" source="YE8yQruqdNAR4PLWfE6g-1" target="IcDYwzOxPDOBFZn5-O4r-1" edge="1">
          <mxGeometry x="-0.3846" y="10" relative="1" as="geometry">
            <mxPoint x="-50" y="730" as="sourcePoint" />
            <mxPoint x="110" y="730" as="targetPoint" />
            <mxPoint as="offset" />
          </mxGeometry>
        </mxCell>
        <mxCell id="NR1aC9e4uaMkveNaqMeH-1" value="&lt;p style=&quot;margin: 0px ; margin-top: 4px ; text-align: center&quot;&gt;&lt;b&gt;FilterHandler&lt;/b&gt;&lt;/p&gt;&lt;hr size=&quot;1&quot;&gt;&lt;p style=&quot;margin: 0px ; margin-left: 4px&quot;&gt;+ ads: AdvertisementModel[]&lt;br&gt;&lt;/p&gt;&lt;p style=&quot;margin: 0px ; margin-left: 4px&quot;&gt;+ rules: Rule[]&lt;/p&gt;&lt;hr size=&quot;1&quot;&gt;&lt;p style=&quot;margin: 0px 0px 0px 4px&quot;&gt;+ filterByFrequency(): void&lt;/p&gt;&lt;p style=&quot;margin: 0px 0px 0px 4px&quot;&gt;+ filterByBid(): void&lt;/p&gt;&lt;p style=&quot;margin: 0px 0px 0px 4px&quot;&gt;+ filterByBlackName(): void&lt;/p&gt;&lt;p style=&quot;margin: 0px 0px 0px 4px&quot;&gt;+ filterByOthers(): void&lt;/p&gt;&lt;p style=&quot;margin: 0px 0px 0px 4px&quot;&gt;+ registerRules(): void&lt;/p&gt;" style="verticalAlign=top;align=left;overflow=fill;fontSize=12;fontFamily=Helvetica;html=1;" parent="1" vertex="1">
          <mxGeometry x="-481.25" y="240" width="325" height="163.75" as="geometry" />
        </mxCell>
        <mxCell id="NR1aC9e4uaMkveNaqMeH-2" value="&lt;p style=&quot;margin: 0px ; margin-top: 4px ; text-align: center&quot;&gt;&lt;b&gt;RerankHandler&lt;/b&gt;&lt;/p&gt;&lt;hr size=&quot;1&quot;&gt;&lt;p style=&quot;margin: 0px ; margin-left: 4px&quot;&gt;+ expression: string&lt;/p&gt;&lt;p style=&quot;margin: 0px ; margin-left: 4px&quot;&gt;+ ads:&amp;nbsp;AdvertisementModel[]&lt;/p&gt;&lt;p style=&quot;margin: 0px ; margin-left: 4px&quot;&gt;+ ReportInfos: ReportInfo[]&lt;/p&gt;&lt;hr size=&quot;1&quot;&gt;&lt;p style=&quot;margin: 0px 0px 0px 4px&quot;&gt;&lt;span&gt;+ updateExpression(): void&lt;/span&gt;&lt;br&gt;&lt;/p&gt;&lt;p style=&quot;margin: 0px 0px 0px 4px&quot;&gt;&lt;span&gt;+ getReportInfos(): void&lt;/span&gt;&lt;/p&gt;&lt;p style=&quot;margin: 0px 0px 0px 4px&quot;&gt;+ rankAdvertisementByExpression(): void&lt;/p&gt;&lt;p style=&quot;margin: 0px 0px 0px 4px&quot;&gt;+ rerank(): void&lt;br&gt;&lt;/p&gt;" style="verticalAlign=top;align=left;overflow=fill;fontSize=12;fontFamily=Helvetica;html=1;" parent="1" vertex="1">
          <mxGeometry x="318.75" y="240" width="325" height="163.75" as="geometry" />
        </mxCell>
        <mxCell id="NR1aC9e4uaMkveNaqMeH-3" value="" style="endArrow=open;endFill=1;endSize=12;html=1;exitX=0;exitY=0.5;exitDx=0;exitDy=0;entryX=1;entryY=0.5;entryDx=0;entryDy=0;" parent="1" source="HOZdnpOeCfYpGoQ59FNz-10" target="NR1aC9e4uaMkveNaqMeH-1" edge="1">
          <mxGeometry width="160" relative="1" as="geometry">
            <mxPoint x="-111.25" y="370" as="sourcePoint" />
            <mxPoint x="48.75" y="370" as="targetPoint" />
          </mxGeometry>
        </mxCell>
        <mxCell id="NR1aC9e4uaMkveNaqMeH-6" value="has" style="edgeLabel;html=1;align=center;verticalAlign=middle;resizable=0;points=[];" parent="NR1aC9e4uaMkveNaqMeH-3" vertex="1" connectable="0">
          <mxGeometry x="-0.0667" y="-4" relative="1" as="geometry">
            <mxPoint x="-1" as="offset" />
          </mxGeometry>
        </mxCell>
        <mxCell id="NR1aC9e4uaMkveNaqMeH-4" value="" style="endArrow=open;endFill=1;endSize=12;html=1;exitX=1;exitY=0.5;exitDx=0;exitDy=0;entryX=0;entryY=0.5;entryDx=0;entryDy=0;" parent="1" source="HOZdnpOeCfYpGoQ59FNz-10" target="NR1aC9e4uaMkveNaqMeH-2" edge="1">
          <mxGeometry width="160" relative="1" as="geometry">
            <mxPoint x="346.25" y="150.005" as="sourcePoint" />
            <mxPoint x="268.75" y="240.005" as="targetPoint" />
          </mxGeometry>
        </mxCell>
        <mxCell id="NR1aC9e4uaMkveNaqMeH-5" value="has" style="edgeLabel;html=1;align=center;verticalAlign=middle;resizable=0;points=[];" parent="NR1aC9e4uaMkveNaqMeH-4" vertex="1" connectable="0">
          <mxGeometry x="-0.3146" relative="1" as="geometry">
            <mxPoint x="-1" as="offset" />
          </mxGeometry>
        </mxCell>
        <mxCell id="NR1aC9e4uaMkveNaqMeH-7" value="&lt;p style=&quot;margin: 0px ; margin-top: 4px ; text-align: center&quot;&gt;&lt;b&gt;Rule&lt;/b&gt;&lt;/p&gt;&lt;hr size=&quot;1&quot;&gt;&lt;p style=&quot;margin: 0px ; margin-left: 4px&quot;&gt;+ key: []string&lt;/p&gt;&lt;p style=&quot;margin: 0px ; margin-left: 4px&quot;&gt;+ threshold: []string&lt;/p&gt;&lt;hr size=&quot;1&quot;&gt;&lt;p style=&quot;margin: 0px 0px 0px 4px&quot;&gt;+ resolveFromFile(string): void&lt;/p&gt;" style="verticalAlign=top;align=left;overflow=fill;fontSize=12;fontFamily=Helvetica;html=1;" parent="1" vertex="1">
          <mxGeometry x="-486.25" y="90" width="330" height="93.75" as="geometry" />
        </mxCell>
        <mxCell id="NR1aC9e4uaMkveNaqMeH-8" value="Use" style="endArrow=open;endSize=12;dashed=1;html=1;exitX=0.5;exitY=0;exitDx=0;exitDy=0;entryX=0.5;entryY=1;entryDx=0;entryDy=0;" parent="1" source="NR1aC9e4uaMkveNaqMeH-1" target="NR1aC9e4uaMkveNaqMeH-7" edge="1">
          <mxGeometry width="160" relative="1" as="geometry">
            <mxPoint x="-331.25" y="183.75" as="sourcePoint" />
            <mxPoint x="-371.25" y="210" as="targetPoint" />
          </mxGeometry>
        </mxCell>
        <mxCell id="NR1aC9e4uaMkveNaqMeH-9" value="&lt;p style=&quot;margin: 0px ; margin-top: 4px ; text-align: center&quot;&gt;&lt;b&gt;Reportinfo&lt;/b&gt;&lt;/p&gt;&lt;hr size=&quot;1&quot;&gt;&lt;p style=&quot;margin: 0px ; margin-left: 4px&quot;&gt;+ feature: []string&lt;/p&gt;&lt;p style=&quot;margin: 0px ; margin-left: 4px&quot;&gt;+ rate: []int&lt;/p&gt;&lt;hr size=&quot;1&quot;&gt;&lt;p style=&quot;margin: 0px 0px 0px 4px&quot;&gt;&lt;br&gt;&lt;/p&gt;" style="verticalAlign=top;align=left;overflow=fill;fontSize=12;fontFamily=Helvetica;html=1;" parent="1" vertex="1">
          <mxGeometry x="316.25" y="90" width="330" height="93.75" as="geometry" />
        </mxCell>
        <mxCell id="NR1aC9e4uaMkveNaqMeH-11" value="Use" style="endArrow=open;endSize=12;dashed=1;html=1;exitX=0.5;exitY=0;exitDx=0;exitDy=0;entryX=0.5;entryY=1;entryDx=0;entryDy=0;" parent="1" source="NR1aC9e4uaMkveNaqMeH-2" target="NR1aC9e4uaMkveNaqMeH-9" edge="1">
          <mxGeometry width="160" relative="1" as="geometry">
            <mxPoint x="441.25" y="226.25" as="sourcePoint" />
            <mxPoint x="438.75" y="170" as="targetPoint" />
          </mxGeometry>
        </mxCell>
      </root>
    </mxGraphModel>
  </diagram>
</mxfile>
